<svg width="512" height="512" viewBox="0 0 512 512" fill="none" xmlns="http://www.w3.org/2000/svg">
<path d="M160 254C160 200.952 202.971 158 256 158C309.029 158 352 200.952 352 254C352 307.048 309.029 350 256 350C202.971 350 160 307.048 160 254Z" fill="white"/>
<path d="M256 0.0365063C114.651 0.0365063 0 113.936 0 253.756C0 359.259 64 449.065 157.074 489.221C163.624 491.987 170.708 493.262 177.812 492.955C184.917 492.648 191.864 490.766 198.149 487.445C204.434 484.125 209.9 479.449 214.15 473.758C218.4 468.066 221.328 461.502 222.72 454.54C224.919 443.707 223.276 432.447 218.072 422.69C212.868 412.932 204.426 405.285 194.194 401.059V401.04C136.594 376.946 96 320.361 96 254.285C96 166.305 167.68 95.1173 256 95.1173C344.32 95.1173 416 166.305 416 254.285C416 320.361 375.406 376.946 317.806 401.04V401.077C307.485 405.236 298.945 412.865 293.663 422.645C288.381 432.425 286.69 443.739 288.881 454.632C291.072 465.525 297.008 475.311 305.662 482.297C314.317 489.283 325.145 493.03 336.274 492.89C342.611 492.841 348.879 491.583 354.743 489.185C447.817 449.941 512 359.953 512 253.719C512 113.17 397.349 0 256 0" fill="white"/>
</svg>
